<svg width="26" height="26" viewBox="0 0 26 26" fill="none" xmlns="http://www.w3.org/2000/svg">
<g opacity="0.7">
<path d="M22.8 9.4392V21.3992C22.8 21.7406 22.7327 22.0787 22.602 22.3942C22.4714 22.7096 22.2799 22.9962 22.0384 23.2377C21.797 23.4791 21.5104 23.6706 21.1949 23.8013C20.8795 23.9319 20.5414 23.9992 20.2 23.9992H4.59999C3.91043 23.9992 3.24911 23.7252 2.76152 23.2377C2.27393 22.7501 2 22.0887 2 21.3992V5.79921C2 5.10965 2.27393 4.44833 2.76152 3.96074C3.24911 3.47315 3.91043 3.19922 4.59999 3.19922H15.4862" stroke="#1C2121" stroke-width="2.08" stroke-linecap="round" stroke-linejoin="round"/>
<path d="M25.3762 0.341268C25.2812 0.236905 25.166 0.152883 25.0377 0.0942788C24.9093 0.0356747 24.7704 0.00370574 24.6293 0.000303475C24.4882 -0.00309879 24.3479 0.0221363 24.2169 0.0744841C24.0858 0.126832 23.9668 0.205205 23.8669 0.304868L23.0628 1.10502C22.9654 1.20253 22.9106 1.33474 22.9106 1.47259C22.9106 1.61044 22.9654 1.74266 23.0628 1.84016L23.7999 2.57596C23.8482 2.62451 23.9057 2.66303 23.9689 2.68931C24.0322 2.71559 24.1 2.72912 24.1685 2.72912C24.237 2.72912 24.3048 2.71559 24.368 2.68931C24.4313 2.66303 24.4887 2.62451 24.537 2.57596L25.3209 1.79596C25.7174 1.40012 25.7545 0.755317 25.3762 0.341268Z" fill="black"/>
<path d="M21.4372 2.73009L9.70338 14.4431C9.63224 14.5139 9.58053 14.6019 9.55323 14.6985L9.01048 16.3151C8.99748 16.3589 8.99656 16.4055 9.00781 16.4498C9.01907 16.4942 9.04209 16.5346 9.07444 16.567C9.10679 16.5993 9.14727 16.6224 9.19161 16.6336C9.23596 16.6449 9.28252 16.644 9.32638 16.631L10.9416 16.0882C11.0382 16.0609 11.1262 16.0092 11.1971 15.9381L22.91 4.20298C23.0184 4.09346 23.0792 3.94561 23.0792 3.79153C23.0792 3.63746 23.0184 3.48961 22.91 3.38009L22.2633 2.73009C22.1536 2.62073 22.0051 2.55933 21.8502 2.55933C21.6954 2.55933 21.5468 2.62073 21.4372 2.73009Z" fill="black"/>
</g>
</svg>
