<svg width="14" height="14" viewBox="0 0 14 14" fill="none" xmlns="http://www.w3.org/2000/svg">
<path d="M0 2C0 1.46957 0.210714 0.960859 0.585786 0.585786C0.960859 0.210714 1.46957 0 2 0H12C12.5304 0 13.0391 0.210714 13.4142 0.585786C13.7893 0.960859 14 1.46957 14 2V12C14 12.5304 13.7893 13.0391 13.4142 13.4142C13.0391 13.7893 12.5304 14 12 14H2C1.46957 14 0.960859 13.7893 0.585786 13.4142C0.210714 13.0391 0 12.5304 0 12V2ZM2 1C1.73478 1 1.48043 1.10536 1.29289 1.29289C1.10536 1.48043 1 1.73478 1 2V12C1 12.2652 1.10536 12.5196 1.29289 12.7071C1.48043 12.8946 1.73478 13 2 13H12C12.2652 13 12.5196 12.8946 12.7071 12.7071C12.8946 12.5196 13 12.2652 13 12V2C13 1.73478 12.8946 1.48043 12.7071 1.29289C12.5196 1.10536 12.2652 1 12 1H2ZM7 3C7.13261 3 7.25979 3.05268 7.35355 3.14645C7.44732 3.24021 7.5 3.36739 7.5 3.5V6.5H10.5C10.6326 6.5 10.7598 6.55268 10.8536 6.64645C10.9473 6.74021 11 6.86739 11 7C11 7.13261 10.9473 7.25979 10.8536 7.35355C10.7598 7.44732 10.6326 7.5 10.5 7.5H7.5V10.5C7.5 10.6326 7.44732 10.7598 7.35355 10.8536C7.25979 10.9473 7.13261 11 7 11C6.86739 11 6.74021 10.9473 6.64645 10.8536C6.55268 10.7598 6.5 10.6326 6.5 10.5V7.5H3.5C3.36739 7.5 3.24021 7.44732 3.14645 7.35355C3.05268 7.25979 3 7.13261 3 7C3 6.86739 3.05268 6.74021 3.14645 6.64645C3.24021 6.55268 3.36739 6.5 3.5 6.5H6.5V3.5C6.5 3.36739 6.55268 3.24021 6.64645 3.14645C6.74021 3.05268 6.86739 3 7 3Z" fill="#1C2121"/>
</svg>
