<svg width="14" height="16" viewBox="0 0 14 16" fill="none" xmlns="http://www.w3.org/2000/svg">
<path fill-rule="evenodd" clip-rule="evenodd" d="M9.84615 2.46154H13.5385V3.69231H12.3077V14.7692L11.0769 16H2.46154L1.23077 14.7692V3.69231H0V2.46154H3.69231V1.23077C3.69231 0.904349 3.82198 0.591298 4.05279 0.360484C4.28361 0.12967 4.59666 0 4.92308 0H8.61538C8.9418 0 9.25486 0.12967 9.48567 0.360484C9.71648 0.591298 9.84615 0.904349 9.84615 1.23077V2.46154ZM8.61538 1.23077H4.92308V2.46154H8.61538V1.23077ZM2.46154 14.7692H11.0769V3.69231H2.46154V14.7692ZM4.92308 4.92308H3.69231V13.5385H4.92308V4.92308ZM6.15385 4.92308H7.38461V13.5385H6.15385V4.92308ZM8.61538 4.92308H9.84615V13.5385H8.61538V4.92308Z" fill="white"/>
</svg>
